<svg xmlns="http://www.w3.org/2000/svg" version="1.1" xmlns:xlink="http://www.w3.org/1999/xlink" xmlns:svgjs="http://svgjs.com/svgjs" width="173" height="199"><svg width="173" height="199" viewBox="0 0 173 199" fill="none" xmlns="http://www.w3.org/2000/svg">
<path d="M57.6623 123.871C84.2875 155.602 105.871 181.325 105.871 181.325C74.1408 207.95 26.8341 203.811 0.208984 172.081C0.208984 172.081 25.9317 150.497 57.6623 123.871Z" fill="#48B04A" fill-opacity="0.4"></path>
<path d="M57.6623 123.871C89.3929 97.2463 115.116 75.6624 115.116 75.6624C141.741 107.393 137.602 154.7 105.871 181.325C105.871 181.325 84.2875 155.602 57.6623 123.871Z" fill="#48B04A" fill-opacity="0.6"></path>
<path d="M115.116 75.6624C83.385 102.288 57.6623 123.871 57.6623 123.871C31.0372 92.1409 35.176 44.8342 66.9066 18.209C66.9066 18.209 88.4905 43.9318 115.116 75.6624Z" fill="#48B04A" fill-opacity="0.8"></path>
<path d="M115.116 75.6624C88.4905 43.9318 66.9066 18.209 66.9066 18.209C98.6372 -8.4161 145.944 -4.27725 172.569 27.4533C172.569 27.4533 146.846 49.0373 115.116 75.6624Z" fill="#48B04A"></path>
</svg><style>@media (prefers-color-scheme: light) { :root { filter: none; } }
</style></svg>